<?xml version="1.0" encoding="UTF-8" standalone="no"?>
<!DOCTYPE svg PUBLIC "-//W3C//DTD SVG 1.1//EN" "http://www.w3.org/Graphics/SVG/1.1/DTD/svg11.dtd">
<svg width="100%" height="100%" viewBox="0 0 512 512" version="1.1" xmlns="http://www.w3.org/2000/svg" xmlns:xlink="http://www.w3.org/1999/xlink" xml:space="preserve" xmlns:serif="http://www.serif.com/" style="fill-rule:evenodd;clip-rule:evenodd;stroke-linejoin:round;stroke-miterlimit:2;">
    <rect id="Artboard1" x="0" y="0" width="512" height="512" style="fill:none;"/>
    <g id="Artboard11" serif:id="Artboard1">
        <g transform="matrix(1.05241,0,0,1.05241,-13.4175,-13.4175)">
            <path d="M236.2,27.627C248.452,20.553 263.548,20.553 275.8,27.627C315.457,50.523 404.219,101.77 443.877,124.667C456.129,131.74 463.677,144.813 463.677,158.961L463.677,353.039C463.677,367.187 456.129,380.26 443.877,387.333C404.219,410.23 315.457,461.477 275.8,484.373C263.548,491.447 248.452,491.447 236.2,484.373C196.543,461.477 107.781,410.23 68.123,387.333C55.871,380.26 48.323,367.187 48.323,353.039L48.323,158.961C48.323,144.813 55.871,131.74 68.123,124.667C107.781,101.77 196.543,50.523 236.2,27.627Z" style="fill:white;"/>
        </g>
        <g transform="matrix(1.05241,0,0,1.05241,-13.4175,-13.4175)">
            <path d="M236.2,27.627C248.452,20.553 263.548,20.553 275.8,27.627C315.457,50.523 404.219,101.77 443.877,124.667C456.129,131.74 463.677,144.813 463.677,158.961L463.677,353.039C463.677,367.187 456.129,380.26 443.877,387.333C404.219,410.23 315.457,461.477 275.8,484.373C263.548,491.447 248.452,491.447 236.2,484.373C196.543,461.477 107.781,410.23 68.123,387.333C55.871,380.26 48.323,367.187 48.323,353.039L48.323,158.961C48.323,144.813 55.871,131.74 68.123,124.667C107.781,101.77 196.543,50.523 236.2,27.627Z" style="fill:rgb(118,38,158);"/>
        </g>
        <g transform="matrix(1.05241,0,0,1.05241,-13.4175,-13.4175)">
            <path d="M383.562,358.198C353.877,394.577 308.695,417.823 258.126,417.823C168.814,417.823 96.303,345.313 96.303,256C96.303,166.687 168.814,94.177 258.126,94.177C309.82,94.177 355.886,118.469 385.514,156.243L338.104,194.114C319.594,170.238 290.642,154.861 258.126,154.861C202.306,154.861 156.987,200.18 156.987,256C156.987,311.82 202.306,357.139 258.126,357.139C289.52,357.139 317.592,342.805 336.151,320.327L383.562,358.198Z" style="fill:white;"/>
        </g>
        <g transform="matrix(0.815118,0,0,0.815118,87.4365,47.3298)">
            <path d="M433.785,319.351L433.785,297.482L455.654,297.482L455.654,266.935L433.785,266.935L433.785,245.065L455.654,245.065L455.654,214.518L433.785,214.518L433.785,192.649L403.237,192.649L403.237,214.518L381.368,214.518L381.368,192.649L350.821,192.649L350.821,214.518L328.951,214.518L328.951,245.065L350.821,245.065L350.821,266.935L328.951,266.935L328.951,297.482L350.821,297.482L350.821,319.351L381.368,319.351L381.368,297.482L403.237,297.482L403.237,319.351L433.785,319.351ZM403.237,245.065L381.368,245.065L381.368,266.935L403.237,266.935L403.237,245.065Z" style="fill:white;"/>
        </g>
    </g>
</svg>
