<?xml version="1.0" encoding="UTF-8" standalone="no"?>
<!DOCTYPE svg PUBLIC "-//W3C//DTD SVG 1.1//EN" "http://www.w3.org/Graphics/SVG/1.1/DTD/svg11.dtd">
<svg width="100%" height="100%" viewBox="0 0 800 800" version="1.1" xmlns="http://www.w3.org/2000/svg" xmlns:xlink="http://www.w3.org/1999/xlink" xml:space="preserve" xmlns:serif="http://www.serif.com/" style="fill-rule:evenodd;clip-rule:evenodd;stroke-linecap:round;stroke-linejoin:round;stroke-miterlimit:1.5;">
    <rect id="Artboard1" x="0" y="0" width="800" height="800" style="fill:none;"/>
    <g id="Artboard11" serif:id="Artboard1">
        <g id="Github" transform="matrix(2.43055,0,0,2.43055,-485.529,-597.844)">
            <g transform="matrix(0.843363,0,0,0.843363,57.0679,66.8692)">
                <circle cx="364.333" cy="407.754" r="160.562" style="fill:white;stroke:white;stroke-width:0.15px;"/>
            </g>
            <g transform="matrix(1,0,0,1,-35.8748,17.2549)">
                <g>
                    <g transform="matrix(0.976968,0.213386,-0.213386,0.976968,101.104,-61.3075)">
                        <ellipse cx="333.771" cy="437.894" rx="1.431" ry="1.103" style="stroke:black;stroke-width:0.13px;"/>
                    </g>
                    <g transform="matrix(0.859295,-0.51148,0.51148,0.859295,-178.114,234.953)">
                        <ellipse cx="337.895" cy="441.71" rx="1.209" ry="1.611" style="stroke:black;stroke-width:0.13px;"/>
                    </g>
                    <g transform="matrix(0.849376,-0.527789,0.527789,0.849376,-184.495,247.681)">
                        <ellipse cx="342.076" cy="447.51" rx="1.355" ry="1.978" style="stroke:black;stroke-width:0.13px;"/>
                    </g>
                    <g transform="matrix(0.730128,-0.782529,0.733138,0.684044,-230.411,414.718)">
                        <ellipse cx="342.076" cy="447.51" rx="1.355" ry="1.978" style="stroke:black;stroke-width:0.12px;"/>
                    </g>
                    <g transform="matrix(0.352191,-1.01998,0.964336,0.332977,-197.376,657.299)">
                        <ellipse cx="342.076" cy="447.51" rx="1.355" ry="1.978" style="stroke:black;stroke-width:0.12px;"/>
                    </g>
                    <g transform="matrix(-0.0172363,-1.08685,1.05831,-0.0167838,-104.464,838.012)">
                        <ellipse cx="342.076" cy="447.51" rx="1.355" ry="1.978" style="stroke:black;stroke-width:0.12px;"/>
                    </g>
                    <g transform="matrix(-0.211948,-1.10739,1.04158,-0.199352,-22.4965,925.716)">
                        <ellipse cx="342.076" cy="447.51" rx="1.355" ry="1.978" style="stroke:black;stroke-width:0.12px;"/>
                    </g>
                </g>
                <path d="M368.303,491.929C326.529,478.451 296.275,439.227 296.275,392.993C296.275,335.631 342.846,289.061 400.208,289.061C457.57,289.061 504.141,335.631 504.141,392.993C504.141,439.212 473.906,478.425 432.153,491.916C428.858,492.153 426.109,490.366 426.131,487.685C426.24,473.927 426.239,458.881 425.738,452.67C425.328,447.579 423.778,443.208 419.059,438.87C438.452,438.095 455.804,428.016 462.351,412.797C469.278,396.693 468.931,373.89 456.016,359.954C459.011,351.547 459.144,342.528 454.815,332.558C445.375,331.621 433.362,338.265 426.437,343.331C422.415,342.243 418.383,341.408 414.351,340.823L414.351,340.822C409.732,340.148 405.078,339.802 400.404,339.79L400.381,339.79L400.117,339.79L399.854,339.79L399.831,339.79C395.157,339.802 390.502,340.148 385.884,340.822L385.884,340.823C381.852,341.408 377.82,342.243 373.798,343.331C366.873,338.265 354.86,331.621 345.42,332.558C341.091,342.528 341.223,351.547 344.219,359.954C331.304,373.89 330.957,396.693 337.884,412.797C344.431,428.016 361.783,438.095 381.176,438.87C376.457,443.208 374.907,447.579 374.497,452.67L374.494,452.701C363.329,457.199 351.786,456.758 345.433,446.151C339.353,435.999 330.843,432.81 325.513,433.767C323.424,434.143 322.797,435.981 324.369,437.344C325.334,438.181 328.045,440.15 330.139,441.874C336.676,447.257 337.417,451.932 337.904,453.159C345.32,471.851 366.88,468.867 374.075,467.005C374.021,473.342 374.049,480.68 374.104,487.685C374.125,490.306 371.499,492.072 368.303,491.929Z" style="stroke:black;stroke-width:0.13px;"/>
            </g>
        </g>
    </g>
</svg>
