<?xml version="1.0" encoding="UTF-8" standalone="no"?>
<!DOCTYPE svg PUBLIC "-//W3C//DTD SVG 1.1//EN" "http://www.w3.org/Graphics/SVG/1.1/DTD/svg11.dtd">
<svg width="100%" height="100%" viewBox="0 0 512 512" version="1.1" xmlns="http://www.w3.org/2000/svg" xmlns:xlink="http://www.w3.org/1999/xlink" xml:space="preserve" xmlns:serif="http://www.serif.com/" style="fill-rule:evenodd;clip-rule:evenodd;stroke-linejoin:round;stroke-miterlimit:2;">
    <rect id="Artboard1" x="0" y="0" width="512" height="512" style="fill:none;"/>
    <g id="Artboard11" serif:id="Artboard1">
        <g transform="matrix(1.29253,0,0,1.29253,-74.8884,-97.393)">
            <g transform="matrix(0.881266,0,0,0.954203,14.3813,22.9545)">
                <path d="M469.551,74.506L78.793,74.506L101.991,418.868L274.172,460.622L446.353,418.868L469.551,74.506Z" style="fill:rgb(220,77,37);"/>
            </g>
            <path d="M138.963,312.738L182.335,312.738L184.427,346.365L256,365.158L327.573,346.365L332.444,268.078L136.184,268.078L128.319,141.658L383.681,141.658L381.428,177.869L174.025,177.869L176.503,222.529L378.65,222.529L368.521,385.326L256,414.871L143.479,385.326L138.963,312.738Z" style="fill:white;"/>
        </g>
    </g>
</svg>
