<?xml version="1.0" encoding="UTF-8" standalone="no"?>
<!DOCTYPE svg PUBLIC "-//W3C//DTD SVG 1.1//EN" "http://www.w3.org/Graphics/SVG/1.1/DTD/svg11.dtd">
<svg width="100%" height="100%" viewBox="0 0 512 512" version="1.1" xmlns="http://www.w3.org/2000/svg" xmlns:xlink="http://www.w3.org/1999/xlink" xml:space="preserve" xmlns:serif="http://www.serif.com/" style="fill-rule:evenodd;clip-rule:evenodd;stroke-linejoin:round;stroke-miterlimit:2;">
    <rect id="Artboard1" x="0" y="0" width="512" height="512" style="fill:none;"/>
    <g id="Artboard11" serif:id="Artboard1">
        <g transform="matrix(1.13907,0,0,1.23334,-56.3002,-67.7236)">
            <path d="M469.551,74.506L78.793,74.506L101.991,418.868L274.172,460.622L446.353,418.868L469.551,74.506Z" style="fill:rgb(241,190,33);"/>
        </g>
        <path d="M101.042,305.068L152.594,305.068L155.545,355.104L256,382.928L356.455,355.104L361.93,262.273L98.437,262.273L98.055,256L107.013,72.548L404.987,72.548L409.617,167.371L358.726,167.371L356.387,116.246L155.613,116.246L151.326,209.941L411.696,209.941L413.945,256L404.987,403.166L256,443.15L107.013,403.166L101.042,305.068Z" style="fill:white;"/>
    </g>
</svg>
