<?xml version="1.0" encoding="UTF-8" standalone="no"?>
<!DOCTYPE svg PUBLIC "-//W3C//DTD SVG 1.1//EN" "http://www.w3.org/Graphics/SVG/1.1/DTD/svg11.dtd">
<svg width="100%" height="100%" viewBox="0 0 800 800" version="1.1" xmlns="http://www.w3.org/2000/svg" xmlns:xlink="http://www.w3.org/1999/xlink" xml:space="preserve" xmlns:serif="http://www.serif.com/" style="fill-rule:evenodd;clip-rule:evenodd;stroke-linejoin:round;stroke-miterlimit:2;">
    <rect id="Artboard1" x="0" y="0" width="800" height="800" style="fill:none;"/>
    <g id="Artboard11" serif:id="Artboard1">
        <g id="LinkedIn" transform="matrix(2.54457,0,0,2.54457,-603.223,-634.884)">
            
            <path d="M401.844,393.93C423.688,373.91 448.478,371.658 466.85,384.379C479.231,392.952 484.166,410.478 484.49,435.198L484.49,496.284L451.926,496.284L451.926,435.198C451.901,416.361 445.177,402.603 427.866,403.146C414.947,403.551 402.365,410.407 401.919,432.543L401.844,432.108L401.844,496.06L369.729,496.06L369.729,378.603L401.844,378.603L401.844,393.93Z" style="fill:white;"/>
            <path d="M402.357,377.195L402.594,377.305L402.808,377.455L402.993,377.64L403.143,377.854L403.253,378.091L403.321,378.343L403.343,378.603L403.343,390.61L403.449,390.52L403.581,390.409L403.713,390.298L403.845,390.188L403.976,390.078L404.108,389.969L404.24,389.86L404.372,389.752L404.504,389.643L404.637,389.536L404.769,389.428L404.901,389.321L405.033,389.215L405.166,389.109L405.298,389.003L405.431,388.898L405.563,388.793L405.696,388.688L405.829,388.584L405.962,388.481L406.094,388.377L406.227,388.275L406.36,388.172L406.493,388.07L406.626,387.968L406.759,387.867L406.893,387.766L407.026,387.666L407.159,387.566L407.292,387.466L407.426,387.367L407.559,387.268L407.693,387.17L407.826,387.071L407.96,386.974L408.094,386.877L408.227,386.78L408.361,386.683L408.495,386.587L408.629,386.492L408.763,386.396L408.897,386.302L409.031,386.207L409.165,386.113L409.299,386.02L409.433,385.926L409.567,385.834L409.701,385.741L409.836,385.649L409.97,385.558L410.105,385.466L410.239,385.376L410.373,385.285L410.508,385.195L410.643,385.106L410.777,385.016L410.912,384.928L411.047,384.839L411.181,384.751L411.316,384.664L411.451,384.576L411.586,384.49L411.721,384.403L411.856,384.317L411.991,384.232L412.126,384.147L412.261,384.062L412.396,383.977L412.531,383.893L412.666,383.81L412.802,383.727L412.937,383.644L413.072,383.561L413.208,383.479L413.343,383.398L413.479,383.317L413.614,383.236L413.75,383.155L413.885,383.075L414.021,382.996L414.156,382.917L414.292,382.838L414.428,382.759L414.563,382.681L414.699,382.604L414.835,382.527L414.971,382.45L415.106,382.373L415.242,382.297L415.378,382.222L415.514,382.147L415.65,382.072L415.786,381.997L415.922,381.923L416.058,381.85L416.194,381.776L416.33,381.704L416.466,381.631L416.603,381.559L416.739,381.487L416.875,381.416L417.011,381.345L417.147,381.275L417.284,381.205L417.42,381.135L417.556,381.066L417.693,380.997L417.829,380.929L417.965,380.861L418.102,380.793L418.238,380.726L418.375,380.659L418.511,380.592L418.648,380.526L418.784,380.46L418.921,380.395L419.057,380.33L419.194,380.266L419.33,380.202L419.467,380.138L419.604,380.075L419.74,380.012L419.877,379.949L420.014,379.887L420.15,379.825L420.287,379.764L420.424,379.703L420.561,379.642L420.697,379.582L420.834,379.522L420.971,379.463L421.108,379.404L421.244,379.346L421.381,379.287L421.518,379.23L421.655,379.172L421.792,379.115L421.929,379.059L422.066,379.002L422.202,378.946L422.339,378.891L422.476,378.836L422.613,378.781L422.75,378.727L422.887,378.673L423.024,378.62L423.161,378.567L423.298,378.514L423.435,378.462L423.572,378.41L423.709,378.358L423.845,378.307L423.982,378.257L424.119,378.206L424.256,378.156L424.393,378.107L424.53,378.058L424.667,378.009L424.804,377.96L424.941,377.912L425.078,377.865L425.215,377.818L425.352,377.771L425.489,377.725L425.626,377.679L425.763,377.633L425.9,377.588L426.037,377.543L426.174,377.498L426.311,377.454L426.448,377.411L426.585,377.367L426.722,377.325L426.858,377.282L426.995,377.24L427.132,377.198L427.269,377.157L427.406,377.116L427.543,377.075L427.68,377.035L427.817,376.996L427.954,376.956L428.091,376.917L428.227,376.879L428.364,376.84L428.501,376.803L428.638,376.765L428.775,376.728L428.911,376.692L429.048,376.655L429.185,376.62L429.322,376.584L429.458,376.549L429.595,376.514L429.732,376.48L429.869,376.446L430.005,376.413L430.142,376.379L430.278,376.347L430.415,376.314L430.552,376.282L430.688,376.251L430.825,376.22L430.961,376.189L431.098,376.158L431.234,376.128L431.371,376.099L431.507,376.07L431.644,376.041L431.78,376.012L431.917,375.984L432.053,375.956L432.189,375.929L432.326,375.902L432.462,375.876L432.598,375.85L432.735,375.824L432.871,375.798L433.007,375.773L433.143,375.749L433.279,375.725L433.415,375.701L433.552,375.677L433.688,375.654L433.824,375.632L433.96,375.609L434.096,375.588L434.232,375.566L434.368,375.545L434.503,375.524L434.639,375.504L434.775,375.484L434.911,375.464L435.047,375.445L435.182,375.426L435.318,375.408L435.454,375.39L435.589,375.372L435.725,375.355L435.86,375.338L435.996,375.322L436.131,375.306L436.267,375.29L436.402,375.275L436.538,375.26L436.673,375.245L436.808,375.231L436.944,375.217L437.079,375.204L437.214,375.191L437.349,375.178L437.484,375.166L437.619,375.154L437.754,375.143L437.889,375.131L438.024,375.121L438.159,375.11L438.294,375.1L438.429,375.091L438.563,375.082L438.698,375.073L438.833,375.064L438.967,375.056L439.102,375.049L439.236,375.042L439.371,375.035L439.505,375.028L439.64,375.022L439.774,375.016L439.908,375.011L440.042,375.006L440.176,375.001L440.311,374.997L440.445,374.993L440.579,374.99L440.713,374.987L440.846,374.984L440.98,374.982L441.114,374.98L441.248,374.979L441.382,374.977L441.515,374.977L441.649,374.976L441.782,374.976L441.916,374.977L442.049,374.977L442.182,374.978L442.316,374.98L442.449,374.982L442.582,374.984L442.715,374.987L442.848,374.99L442.981,374.993L443.114,374.997L443.247,375.001L443.38,375.006L443.513,375.011L443.645,375.016L443.778,375.022L443.91,375.028L444.043,375.034L444.175,375.041L444.308,375.048L444.44,375.056L444.572,375.064L444.704,375.072L444.836,375.081L444.968,375.09L445.1,375.1L445.232,375.11L445.364,375.12L445.496,375.13L445.627,375.141L445.759,375.153L445.891,375.165L446.022,375.177L446.153,375.189L446.285,375.202L446.416,375.215L446.547,375.229L446.678,375.243L446.809,375.257L446.94,375.272L447.071,375.287L447.202,375.303L447.332,375.319L447.463,375.335L447.594,375.352L447.724,375.369L447.855,375.386L447.985,375.404L448.115,375.422L448.245,375.441L448.375,375.46L448.505,375.479L448.635,375.499L448.765,375.519L448.895,375.539L449.024,375.56L449.154,375.581L449.284,375.603L449.413,375.624L449.542,375.647L449.672,375.669L449.801,375.692L449.93,375.716L450.059,375.74L450.188,375.764L450.316,375.788L450.445,375.813L450.574,375.839L450.702,375.864L450.831,375.89L450.959,375.917L451.087,375.943L451.216,375.971L451.344,375.998L451.472,376.026L451.6,376.054L451.727,376.083L451.855,376.112L451.983,376.141L452.11,376.171L452.238,376.201L452.365,376.232L452.492,376.262L452.619,376.294L452.746,376.325L452.873,376.357L453,376.39L453.127,376.422L453.254,376.455L453.38,376.489L453.507,376.523L453.633,376.557L453.759,376.591L453.885,376.626L454.011,376.662L454.137,376.697L454.263,376.733L454.389,376.77L454.515,376.807L454.64,376.844L454.766,376.881L454.891,376.919L455.016,376.957L455.141,376.996L455.266,377.035L455.391,377.074L455.516,377.114L455.641,377.154L455.765,377.195L455.89,377.235L456.014,377.277L456.138,377.318L456.262,377.36L456.386,377.402L456.51,377.445L456.634,377.488L456.758,377.532L456.881,377.575L457.005,377.619L457.128,377.664L457.251,377.709L457.375,377.754L457.498,377.8L457.62,377.846L457.743,377.892L457.866,377.939L457.988,377.986L458.111,378.033L458.233,378.081L458.355,378.129L458.477,378.178L458.599,378.226L458.721,378.276L458.843,378.325L458.964,378.375L459.086,378.426L459.207,378.476L459.328,378.527L459.449,378.579L459.57,378.63L459.691,378.683L459.812,378.735L459.933,378.788L460.053,378.841L460.173,378.895L460.294,378.949L460.414,379.003L460.534,379.058L460.653,379.113L460.773,379.168L460.893,379.224L461.012,379.28L461.131,379.336L461.251,379.393L461.37,379.451L461.489,379.508L461.607,379.566L461.726,379.624L461.845,379.683L461.963,379.742L462.081,379.801L462.199,379.861L462.317,379.921L462.435,379.981L462.553,380.042L462.671,380.103L462.788,380.165L462.905,380.227L463.022,380.289L463.14,380.352L463.256,380.415L463.373,380.478L463.49,380.542L463.606,380.606L463.723,380.67L463.839,380.735L463.955,380.8L464.071,380.865L464.187,380.931L464.302,380.997L464.418,381.064L464.533,381.13L464.648,381.198L464.763,381.265L464.878,381.333L464.993,381.401L465.108,381.47L465.222,381.539L465.337,381.608L465.451,381.678L465.565,381.748L465.679,381.819L465.792,381.889L465.906,381.96L466.019,382.032L466.133,382.104L466.246,382.176L466.359,382.248L466.472,382.321L466.584,382.394L466.697,382.468L466.809,382.542L466.922,382.616L467.034,382.691L467.146,382.766L467.257,382.841L467.369,382.917L467.481,382.993L467.592,383.069L467.704,383.147L467.855,383.252L468.007,383.359L468.157,383.467L468.307,383.575L468.457,383.685L468.605,383.795L468.753,383.906L468.9,384.019L469.047,384.131L469.193,384.245L469.338,384.36L469.482,384.475L469.626,384.592L469.769,384.709L469.911,384.827L470.052,384.946L470.193,385.065L470.333,385.186L470.473,385.307L470.611,385.429L470.749,385.552L470.886,385.676L471.023,385.801L471.159,385.927L471.294,386.053L471.428,386.18L471.562,386.308L471.695,386.437L471.827,386.567L471.959,386.697L472.09,386.829L472.22,386.961L472.35,387.094L472.479,387.228L472.607,387.362L472.734,387.498L472.861,387.634L472.987,387.771L473.112,387.909L473.237,388.048L473.361,388.187L473.484,388.327L473.607,388.468L473.728,388.61L473.85,388.753L473.97,388.896L474.09,389.041L474.209,389.186L474.327,389.332L474.445,389.478L474.562,389.626L474.679,389.774L474.794,389.923L474.909,390.073L475.024,390.224L475.137,390.375L475.25,390.527L475.362,390.68L475.474,390.834L475.585,390.989L475.695,391.144L475.805,391.3L475.914,391.457L476.022,391.615L476.13,391.773L476.236,391.932L476.343,392.092L476.448,392.253L476.553,392.414L476.657,392.577L476.761,392.74L476.864,392.904L476.966,393.068L477.068,393.233L477.169,393.399L477.269,393.566L477.369,393.734L477.468,393.902L477.566,394.071L477.664,394.241L477.761,394.412L477.857,394.583L477.953,394.755L478.048,394.928L478.142,395.102L478.236,395.276L478.329,395.451L478.422,395.627L478.514,395.804L478.605,395.981L478.696,396.159L478.786,396.338L478.875,396.518L478.964,396.698L479.052,396.879L479.139,397.061L479.226,397.244L479.312,397.427L479.398,397.611L479.483,397.796L479.567,397.981L479.651,398.167L479.734,398.354L479.817,398.542L479.898,398.73L479.98,398.919L480.06,399.109L480.14,399.3L480.22,399.491L480.299,399.683L480.377,399.876L480.454,400.07L480.531,400.264L480.608,400.459L480.684,400.654L480.759,400.851L480.833,401.048L480.907,401.246L480.981,401.444L481.054,401.643L481.126,401.843L481.197,402.044L481.269,402.246L481.339,402.448L481.409,402.651L481.478,402.854L481.547,403.058L481.615,403.263L481.682,403.469L481.749,403.675L481.816,403.883L481.882,404.09L481.947,404.299L482.011,404.508L482.076,404.718L482.139,404.929L482.202,405.14L482.264,405.352L482.326,405.565L482.387,405.778L482.448,405.993L482.508,406.207L482.568,406.423L482.627,406.639L482.685,406.856L482.743,407.074L482.8,407.292L482.857,407.511L482.913,407.731L482.969,407.952L483.024,408.173L483.078,408.395L483.132,408.617L483.186,408.841L483.239,409.065L483.291,409.289L483.343,409.515L483.394,409.741L483.445,409.968L483.495,410.195L483.545,410.423L483.594,410.652L483.643,410.881L483.691,411.112L483.738,411.343L483.785,411.574L483.832,411.806L483.877,412.039L483.923,412.273L483.968,412.507L484.012,412.742L484.056,412.978L484.099,413.215L484.142,413.452L484.184,413.689L484.226,413.928L484.267,414.167L484.308,414.407L484.348,414.647L484.388,414.889L484.427,415.13L484.466,415.373L484.504,415.616L484.541,415.86L484.578,416.105L484.615,416.35L484.651,416.596L484.687,416.843L484.722,417.09L484.756,417.338L484.791,417.587L484.824,417.836L484.857,418.086L484.89,418.337L484.922,418.588L484.954,418.84L484.985,419.093L485.015,419.346L485.046,419.6L485.075,419.855L485.104,420.11L485.133,420.367L485.161,420.623L485.189,420.881L485.216,421.139L485.243,421.398L485.269,421.657L485.295,421.917L485.32,422.178L485.345,422.439L485.369,422.701L485.393,422.964L485.417,423.228L485.44,423.492L485.462,423.757L485.484,424.022L485.505,424.288L485.526,424.555L485.547,424.822L485.567,425.09L485.587,425.359L485.606,425.629L485.625,425.899L485.643,426.169L485.661,426.441L485.678,426.713L485.695,426.985L485.711,427.259L485.727,427.533L485.743,427.808L485.758,428.083L485.772,428.359L485.786,428.636L485.8,428.913L485.813,429.191L485.826,429.469L485.839,429.749L485.85,430.029L485.862,430.309L485.873,430.59L485.883,430.872L485.894,431.155L485.903,431.438L485.912,431.722L485.921,432.006L485.93,432.291L485.938,432.577L485.945,432.864L485.952,433.151L485.959,433.438L485.965,433.727L485.971,434.016L485.976,434.305L485.981,434.596L485.985,434.887L485.99,435.188L485.99,496.284L485.967,496.545L485.899,496.797L485.789,497.034L485.639,497.248L485.454,497.433L485.24,497.583L485.003,497.693L484.751,497.761L484.49,497.783L451.926,497.783L451.666,497.761L451.413,497.693L451.176,497.583L450.962,497.433L450.777,497.248L450.628,497.034L450.517,496.797L450.449,496.545L450.427,496.284L450.427,435.2L450.426,434.984L450.425,434.768L450.423,434.552L450.421,434.338L450.418,434.123L450.414,433.909L450.41,433.696L450.405,433.483L450.4,433.271L450.394,433.059L450.387,432.848L450.38,432.638L450.372,432.427L450.363,432.218L450.354,432.009L450.344,431.8L450.334,431.592L450.323,431.385L450.311,431.178L450.299,430.972L450.286,430.766L450.273,430.561L450.259,430.356L450.244,430.152L450.229,429.949L450.213,429.746L450.196,429.543L450.179,429.342L450.161,429.141L450.142,428.94L450.123,428.74L450.103,428.541L450.083,428.342L450.062,428.144L450.04,427.947L450.018,427.75L449.995,427.554L449.971,427.358L449.947,427.163L449.922,426.969L449.897,426.775L449.87,426.582L449.844,426.389L449.816,426.198L449.788,426.006L449.759,425.816L449.73,425.626L449.7,425.437L449.669,425.248L449.638,425.061L449.606,424.873L449.573,424.687L449.54,424.501L449.506,424.316L449.471,424.132L449.436,423.948L449.4,423.765L449.363,423.582L449.326,423.401L449.288,423.22L449.249,423.039L449.21,422.86L449.17,422.681L449.13,422.503L449.088,422.326L449.046,422.149L449.004,421.973L448.961,421.798L448.917,421.623L448.872,421.449L448.827,421.276L448.781,421.104L448.735,420.933L448.687,420.762L448.639,420.592L448.591,420.423L448.542,420.254L448.492,420.086L448.441,419.919L448.39,419.753L448.338,419.588L448.285,419.423L448.232,419.259L448.178,419.096L448.124,418.934L448.068,418.772L448.012,418.612L447.956,418.452L447.899,418.292L447.841,418.134L447.782,417.977L447.723,417.82L447.663,417.664L447.602,417.509L447.541,417.355L447.479,417.201L447.416,417.049L447.352,416.897L447.288,416.746L447.224,416.596L447.158,416.447L447.092,416.298L447.025,416.15L446.958,416.004L446.89,415.858L446.821,415.713L446.752,415.568L446.681,415.425L446.61,415.283L446.539,415.141L446.467,415L446.394,414.86L446.32,414.721L446.246,414.583L446.171,414.446L446.095,414.309L446.019,414.174L445.942,414.039L445.864,413.905L445.786,413.772L445.707,413.64L445.627,413.509L445.547,413.379L445.466,413.249L445.384,413.121L445.301,412.993L445.218,412.867L445.134,412.741L445.05,412.616L444.964,412.492L444.878,412.369L444.792,412.247L444.703,412.124L444.66,412.065L444.616,412.005L444.572,411.945L444.528,411.886L444.483,411.826L444.438,411.767L444.393,411.708L444.348,411.649L444.303,411.591L444.257,411.533L444.211,411.475L444.166,411.417L444.12,411.359L444.073,411.302L444.027,411.245L443.98,411.188L443.934,411.131L443.887,411.075L443.84,411.019L443.792,410.963L443.745,410.907L443.697,410.852L443.65,410.796L443.602,410.741L443.553,410.686L443.505,410.632L443.457,410.578L443.408,410.523L443.359,410.47L443.31,410.416L443.261,410.363L443.211,410.309L443.162,410.256L443.112,410.204L443.062,410.151L443.012,410.099L442.962,410.047L442.911,409.995L442.861,409.944L442.81,409.892L442.759,409.841L442.708,409.791L442.656,409.74L442.605,409.69L442.553,409.639L442.501,409.589L442.449,409.54L442.397,409.49L442.344,409.441L442.292,409.392L442.239,409.343L442.186,409.295L442.133,409.247L442.079,409.199L442.026,409.151L441.972,409.103L441.918,409.056L441.864,409.009L441.81,408.962L441.755,408.915L441.7,408.869L441.646,408.823L441.591,408.777L441.535,408.731L441.48,408.686L441.424,408.641L441.368,408.596L441.312,408.551L441.256,408.507L441.2,408.462L441.143,408.418L441.087,408.375L441.03,408.331L440.973,408.288L440.915,408.245L440.858,408.202L440.8,408.159L440.742,408.117L440.684,408.075L440.626,408.033L440.567,407.991L440.509,407.95L440.45,407.909L440.391,407.868L440.331,407.827L440.272,407.787L440.212,407.747L440.152,407.707L440.092,407.667L440.032,407.628L439.972,407.588L439.911,407.549L439.85,407.511L439.789,407.472L439.728,407.434L439.667,407.396L439.605,407.358L439.543,407.321L439.481,407.283L439.419,407.246L439.356,407.209L439.294,407.173L439.231,407.137L439.168,407.101L439.104,407.065L439.041,407.029L438.977,406.994L438.913,406.959L438.849,406.924L438.785,406.889L438.721,406.855L438.656,406.821L438.591,406.787L438.526,406.753L438.461,406.72L438.395,406.687L438.329,406.654L438.263,406.621L438.197,406.589L438.131,406.557L438.064,406.525L437.997,406.493L437.93,406.462L437.863,406.431L437.796,406.4L437.728,406.369L437.66,406.339L437.592,406.309L437.524,406.279L437.455,406.249L437.386,406.22L437.317,406.191L437.248,406.162L437.179,406.133L437.109,406.105L437.039,406.077L436.969,406.049L436.899,406.021L436.828,405.994L436.758,405.967L436.687,405.94L436.616,405.914L436.544,405.887L436.473,405.861L436.401,405.835L436.329,405.81L436.256,405.785L436.184,405.759L436.111,405.735L436.038,405.71L435.965,405.686L435.891,405.662L435.818,405.638L435.744,405.615L435.67,405.592L435.595,405.569L435.521,405.546L435.446,405.524L435.371,405.501L435.296,405.479L435.22,405.458L435.145,405.436L435.069,405.415L434.992,405.395L434.916,405.374L434.839,405.354L434.762,405.334L434.685,405.314L434.608,405.294L434.53,405.275L434.452,405.256L434.374,405.238L434.296,405.219L434.217,405.201L434.139,405.183L434.06,405.166L433.98,405.148L433.901,405.131L433.821,405.114L433.741,405.098L433.661,405.082L433.58,405.066L433.5,405.05L433.419,405.035L433.337,405.02L433.256,405.005L433.174,404.99L433.092,404.976L433.01,404.962L432.928,404.948L432.845,404.935L432.762,404.922L432.679,404.909L432.596,404.896L432.512,404.884L432.428,404.872L432.344,404.86L432.26,404.849L432.175,404.837L432.09,404.826L432.005,404.816L431.92,404.806L431.834,404.796L431.748,404.786L431.662,404.776L431.576,404.767L431.489,404.758L431.402,404.75L431.315,404.741L431.228,404.733L431.14,404.726L431.052,404.718L430.964,404.711L430.876,404.704L430.787,404.698L430.698,404.692L430.609,404.686L430.52,404.68L430.43,404.675L430.34,404.67L430.25,404.665L430.16,404.66L430.069,404.656L429.978,404.652L429.887,404.649L429.795,404.645L429.704,404.642L429.612,404.64L429.52,404.637L429.427,404.635L429.334,404.634L429.241,404.632L429.148,404.631L429.055,404.63L428.961,404.63L428.867,404.629L428.773,404.63L428.678,404.63L428.583,404.631L428.488,404.632L428.393,404.633L428.298,404.635L428.202,404.637L428.106,404.639L428.009,404.641L427.913,404.644L427.767,404.649L427.622,404.654L427.477,404.66L427.331,404.667L427.186,404.674L427.041,404.682L426.896,404.69L426.751,404.699L426.606,404.709L426.461,404.719L426.317,404.729L426.172,404.741L426.028,404.752L425.883,404.765L425.739,404.778L425.595,404.792L425.451,404.806L425.308,404.821L425.164,404.836L425.021,404.852L424.877,404.869L424.734,404.887L424.591,404.905L424.448,404.923L424.306,404.942L424.163,404.962L424.021,404.983L423.879,405.004L423.737,405.026L423.595,405.048L423.453,405.071L423.312,405.095L423.171,405.12L423.03,405.145L422.889,405.17L422.749,405.197L422.608,405.224L422.468,405.251L422.328,405.28L422.189,405.309L422.049,405.338L421.91,405.369L421.771,405.4L421.632,405.432L421.494,405.464L421.356,405.497L421.218,405.531L421.08,405.565L420.943,405.601L420.806,405.636L420.669,405.673L420.532,405.71L420.396,405.748L420.26,405.787L420.125,405.826L419.989,405.866L419.854,405.907L419.719,405.949L419.585,405.991L419.451,406.034L419.317,406.077L419.183,406.122L419.05,406.167L418.917,406.213L418.785,406.259L418.652,406.307L418.52,406.355L418.389,406.404L418.258,406.453L418.127,406.503L417.996,406.554L417.866,406.606L417.736,406.659L417.607,406.712L417.478,406.766L417.349,406.821L417.221,406.876L417.093,406.933L416.965,406.99L416.838,407.048L416.711,407.106L416.585,407.166L416.459,407.226L416.333,407.287L416.208,407.348L416.083,407.411L415.959,407.474L415.835,407.538L415.711,407.603L415.588,407.669L415.465,407.736L415.343,407.803L415.221,407.871L415.099,407.94L414.978,408.01L414.857,408.08L414.737,408.152L414.617,408.224L414.498,408.297L414.379,408.371L414.261,408.445L414.143,408.521L414.025,408.597L413.908,408.674L413.791,408.752L413.675,408.831L413.56,408.911L413.444,408.991L413.33,409.073L413.215,409.155L413.102,409.238L412.988,409.322L412.875,409.407L412.763,409.493L412.651,409.579L412.54,409.667L412.429,409.755L412.318,409.845L412.209,409.935L412.099,410.026L411.99,410.118L411.882,410.211L411.774,410.304L411.667,410.399L411.56,410.495L411.453,410.591L411.348,410.689L411.242,410.787L411.138,410.886L411.033,410.986L410.93,411.088L410.827,411.19L410.724,411.293L410.622,411.397L410.52,411.502L410.419,411.608L410.319,411.714L410.219,411.822L410.12,411.931L410.021,412.041L409.923,412.152L409.825,412.263L409.728,412.376L409.632,412.49L409.536,412.605L409.44,412.72L409.346,412.837L409.251,412.955L409.158,413.073L409.065,413.193L408.972,413.315L408.926,413.375L408.881,413.436L408.835,413.497L408.789,413.559L408.744,413.621L408.699,413.683L408.654,413.745L408.609,413.808L408.564,413.87L408.52,413.933L408.475,413.997L408.431,414.061L408.387,414.124L408.343,414.189L408.299,414.253L408.255,414.318L408.212,414.383L408.168,414.448L408.125,414.514L408.082,414.579L408.039,414.645L407.997,414.712L407.954,414.778L407.912,414.845L407.869,414.912L407.827,414.98L407.785,415.047L407.744,415.115L407.702,415.183L407.661,415.252L407.619,415.321L407.578,415.39L407.537,415.459L407.497,415.529L407.456,415.599L407.415,415.669L407.375,415.739L407.335,415.81L407.295,415.881L407.255,415.952L407.216,416.024L407.176,416.095L407.137,416.168L407.098,416.24L407.059,416.313L407.02,416.386L406.982,416.459L406.943,416.532L406.905,416.606L406.867,416.68L406.829,416.755L406.791,416.829L406.754,416.904L406.717,416.979L406.679,417.055L406.642,417.131L406.606,417.207L406.569,417.283L406.532,417.36L406.496,417.437L406.46,417.514L406.424,417.592L406.388,417.67L406.353,417.748L406.317,417.826L406.282,417.905L406.247,417.984L406.212,418.063L406.178,418.143L406.143,418.223L406.109,418.303L406.075,418.384L406.041,418.464L406.007,418.546L405.974,418.627L405.94,418.709L405.907,418.791L405.874,418.873L405.841,418.956L405.809,419.039L405.776,419.122L405.744,419.205L405.712,419.289L405.68,419.373L405.649,419.458L405.617,419.542L405.586,419.627L405.555,419.713L405.524,419.798L405.493,419.884L405.463,419.971L405.433,420.057L405.402,420.144L405.373,420.231L405.343,420.319L405.313,420.407L405.284,420.495L405.255,420.583L405.226,420.672L405.198,420.761L405.169,420.85L405.141,420.94L405.113,421.03L405.085,421.121L405.057,421.211L405.03,421.302L405.003,421.393L404.976,421.485L404.949,421.577L404.922,421.669L404.896,421.762L404.87,421.854L404.844,421.948L404.818,422.041L404.792,422.135L404.767,422.229L404.742,422.324L404.717,422.418L404.692,422.513L404.668,422.609L404.643,422.705L404.619,422.801L404.595,422.897L404.572,422.994L404.548,423.091L404.525,423.188L404.502,423.286L404.479,423.384L404.457,423.482L404.434,423.581L404.412,423.68L404.39,423.779L404.369,423.879L404.347,423.979L404.326,424.079L404.305,424.18L404.284,424.281L404.264,424.382L404.244,424.484L404.223,424.586L404.204,424.688L404.184,424.791L404.165,424.894L404.145,424.997L404.126,425.101L404.108,425.205L404.089,425.309L404.071,425.414L404.053,425.519L404.035,425.624L404.018,425.729L404,425.835L403.983,425.942L403.966,426.048L403.95,426.155L403.933,426.263L403.917,426.37L403.901,426.478L403.886,426.587L403.87,426.696L403.855,426.805L403.84,426.913L403.811,427.134L403.783,427.355L403.756,427.577L403.729,427.801L403.704,428.027L403.68,428.253L403.657,428.481L403.634,428.711L403.613,428.942L403.593,429.174L403.574,429.407L403.555,429.642L403.538,429.879L403.522,430.117L403.507,430.356L403.493,430.597L403.48,430.839L403.468,431.082L403.457,431.327L403.447,431.574L403.438,431.821L403.43,432.071L403.423,432.321L403.418,432.577L403.389,432.835L403.343,432.993L403.343,496.06L403.321,496.32L403.253,496.572L403.143,496.809L402.993,497.023L402.808,497.208L402.594,497.358L402.357,497.468L402.105,497.536L401.844,497.559L369.729,497.559L369.469,497.536L369.216,497.468L368.979,497.358L368.765,497.208L368.581,497.023L368.431,496.809L368.32,496.572L368.253,496.32L368.23,496.06L368.23,378.603L368.253,378.343L368.32,378.091L368.431,377.854L368.581,377.64L368.765,377.455L368.979,377.305L369.216,377.195L369.469,377.127L369.729,377.104L401.844,377.104L402.105,377.127L402.357,377.195ZM402.661,395.188L402.443,395.305L402.209,395.384L401.965,395.425L401.717,395.424L401.474,395.383L401.24,395.302L401.023,395.184L400.828,395.032L400.66,394.85L400.525,394.643L400.426,394.416L400.365,394.177L400.345,393.93L400.345,380.103L371.228,380.103L371.228,494.56L400.345,494.56L400.345,432.108L400.365,431.862L400.426,431.622L400.446,431.576L400.45,431.46L400.461,431.2L400.472,430.941L400.485,430.684L400.499,430.428L400.514,430.174L400.53,429.92L400.547,429.668L400.565,429.418L400.585,429.168L400.605,428.92L400.627,428.674L400.649,428.428L400.673,428.184L400.698,427.941L400.723,427.7L400.75,427.46L400.778,427.221L400.807,426.983L400.838,426.747L400.869,426.513L400.885,426.395L400.901,426.278L400.918,426.162L400.934,426.046L400.951,425.93L400.969,425.815L400.986,425.699L401.004,425.585L401.022,425.47L401.04,425.356L401.059,425.242L401.078,425.129L401.097,425.015L401.116,424.902L401.136,424.79L401.156,424.677L401.176,424.566L401.197,424.454L401.217,424.343L401.238,424.231L401.259,424.121L401.281,424.01L401.302,423.9L401.324,423.791L401.347,423.681L401.369,423.572L401.392,423.463L401.415,423.355L401.438,423.246L401.461,423.138L401.485,423.031L401.509,422.923L401.533,422.816L401.558,422.71L401.582,422.603L401.607,422.497L401.632,422.392L401.658,422.286L401.684,422.181L401.71,422.076L401.736,421.972L401.762,421.867L401.789,421.764L401.816,421.66L401.843,421.557L401.87,421.454L401.898,421.351L401.926,421.248L401.954,421.146L401.982,421.045L402.011,420.943L402.04,420.842L402.069,420.741L402.098,420.641L402.128,420.54L402.158,420.44L402.188,420.341L402.218,420.241L402.249,420.142L402.28,420.043L402.311,419.945L402.342,419.847L402.373,419.749L402.405,419.651L402.437,419.554L402.469,419.457L402.502,419.36L402.534,419.264L402.567,419.168L402.6,419.072L402.634,418.977L402.667,418.881L402.701,418.787L402.735,418.692L402.77,418.598L402.804,418.504L402.839,418.41L402.874,418.317L402.909,418.223L402.945,418.131L402.98,418.038L403.016,417.946L403.052,417.854L403.089,417.762L403.125,417.671L403.162,417.58L403.199,417.489L403.237,417.399L403.274,417.309L403.312,417.219L403.35,417.129L403.388,417.04L403.426,416.951L403.465,416.862L403.504,416.774L403.543,416.685L403.582,416.598L403.622,416.51L403.661,416.423L403.701,416.336L403.741,416.249L403.782,416.163L403.822,416.077L403.863,415.991L403.904,415.905L403.946,415.82L403.987,415.735L404.029,415.65L404.071,415.566L404.113,415.482L404.155,415.398L404.198,415.315L404.24,415.232L404.283,415.149L404.326,415.066L404.37,414.984L404.413,414.902L404.457,414.82L404.501,414.738L404.545,414.657L404.59,414.576L404.634,414.495L404.679,414.415L404.724,414.335L404.77,414.255L404.815,414.176L404.861,414.096L404.907,414.018L404.953,413.939L404.999,413.86L405.045,413.782L405.092,413.705L405.139,413.627L405.186,413.55L405.233,413.473L405.281,413.396L405.329,413.32L405.377,413.244L405.425,413.168L405.473,413.092L405.521,413.017L405.57,412.942L405.619,412.867L405.668,412.793L405.717,412.719L405.767,412.645L405.816,412.571L405.866,412.498L405.916,412.425L405.967,412.352L406.017,412.28L406.068,412.208L406.118,412.136L406.169,412.064L406.221,411.993L406.272,411.922L406.324,411.851L406.375,411.78L406.427,411.71L406.479,411.64L406.532,411.57L406.585,411.5L406.69,411.363L406.796,411.226L406.903,411.09L407.011,410.956L407.119,410.822L407.228,410.69L407.338,410.558L407.449,410.428L407.56,410.299L407.672,410.171L407.785,410.043L407.898,409.918L408.012,409.793L408.126,409.669L408.242,409.546L408.358,409.425L408.474,409.304L408.592,409.185L408.71,409.066L408.828,408.949L408.947,408.833L409.067,408.717L409.188,408.603L409.309,408.49L409.43,408.378L409.553,408.267L409.675,408.157L409.799,408.048L409.923,407.941L410.047,407.834L410.173,407.728L410.298,407.623L410.425,407.52L410.552,407.417L410.679,407.316L410.807,407.215L410.936,407.116L411.065,407.017L411.194,406.92L411.324,406.823L411.455,406.728L411.586,406.633L411.718,406.54L411.85,406.447L411.983,406.356L412.116,406.266L412.249,406.176L412.384,406.088L412.518,406L412.653,405.914L412.789,405.829L412.925,405.744L413.061,405.661L413.198,405.578L413.335,405.497L413.473,405.416L413.611,405.337L413.75,405.258L413.889,405.18L414.028,405.104L414.168,405.028L414.309,404.953L414.449,404.879L414.59,404.806L414.732,404.734L414.874,404.663L415.016,404.593L415.158,404.524L415.301,404.456L415.445,404.388L415.588,404.322L415.732,404.256L415.877,404.192L416.021,404.128L416.166,404.065L416.312,404.003L416.457,403.942L416.603,403.882L416.75,403.823L416.896,403.765L417.043,403.707L417.191,403.651L417.338,403.595L417.486,403.54L417.634,403.486L417.783,403.433L417.931,403.381L418.08,403.33L418.229,403.279L418.379,403.229L418.529,403.181L418.679,403.133L418.829,403.085L418.979,403.039L419.13,402.994L419.281,402.949L419.432,402.905L419.584,402.862L419.735,402.82L419.887,402.778L420.039,402.738L420.192,402.698L420.344,402.659L420.497,402.62L420.65,402.583L420.803,402.546L420.956,402.51L421.11,402.475L421.263,402.441L421.417,402.407L421.571,402.375L421.725,402.343L421.879,402.311L422.034,402.281L422.188,402.251L422.343,402.222L422.498,402.194L422.653,402.166L422.808,402.139L422.964,402.113L423.119,402.088L423.274,402.063L423.43,402.039L423.586,402.016L423.742,401.994L423.898,401.972L424.054,401.951L424.21,401.93L424.366,401.911L424.523,401.892L424.679,401.873L424.836,401.856L424.992,401.839L425.149,401.823L425.306,401.807L425.462,401.792L425.619,401.778L425.776,401.764L425.933,401.752L426.09,401.739L426.247,401.728L426.404,401.717L426.561,401.707L426.718,401.697L426.876,401.688L427.033,401.68L427.19,401.672L427.347,401.665L427.504,401.658L427.662,401.652L427.819,401.647L427.925,401.644L428.031,401.641L428.136,401.639L428.242,401.637L428.347,401.635L428.452,401.633L428.556,401.632L428.661,401.631L428.765,401.631L428.869,401.631L428.973,401.631L429.077,401.632L429.18,401.633L429.283,401.634L429.386,401.636L429.489,401.638L429.591,401.64L429.693,401.642L429.795,401.645L429.897,401.649L429.999,401.652L430.1,401.656L430.201,401.661L430.302,401.665L430.403,401.67L430.503,401.675L430.604,401.681L430.704,401.687L430.803,401.693L430.903,401.7L431.002,401.707L431.102,401.714L431.2,401.722L431.299,401.73L431.398,401.738L431.496,401.747L431.594,401.756L431.692,401.765L431.789,401.775L431.887,401.785L431.984,401.795L432.081,401.806L432.178,401.817L432.274,401.828L432.37,401.84L432.466,401.852L432.562,401.864L432.658,401.877L432.753,401.89L432.848,401.903L432.943,401.916L433.038,401.93L433.133,401.945L433.227,401.959L433.321,401.974L433.415,401.989L433.508,402.005L433.602,402.021L433.695,402.037L433.788,402.054L433.881,402.071L433.973,402.088L434.065,402.105L434.158,402.123L434.249,402.142L434.341,402.16L434.432,402.179L434.524,402.198L434.615,402.218L434.705,402.237L434.796,402.258L434.886,402.278L434.976,402.299L435.066,402.32L435.156,402.341L435.245,402.363L435.334,402.385L435.423,402.408L435.512,402.43L435.601,402.453L435.689,402.477L435.777,402.501L435.865,402.525L435.953,402.549L436.04,402.574L436.127,402.599L436.214,402.624L436.301,402.649L436.387,402.675L436.474,402.702L436.56,402.728L436.646,402.755L436.731,402.782L436.817,402.81L436.902,402.838L436.987,402.866L437.072,402.894L437.156,402.923L437.241,402.952L437.325,402.982L437.408,403.011L437.492,403.041L437.575,403.072L437.659,403.102L437.742,403.133L437.824,403.165L437.907,403.196L437.989,403.228L438.071,403.26L438.153,403.293L438.235,403.326L438.316,403.359L438.397,403.392L438.478,403.426L438.559,403.46L438.639,403.494L438.719,403.529L438.799,403.564L438.879,403.599L438.959,403.635L439.038,403.671L439.117,403.707L439.196,403.744L439.275,403.78L439.353,403.818L439.431,403.855L439.509,403.893L439.587,403.931L439.664,403.969L439.742,404.008L439.819,404.047L439.895,404.086L439.972,404.125L440.048,404.165L440.125,404.205L440.2,404.246L440.276,404.286L440.352,404.328L440.427,404.369L440.502,404.41L440.576,404.452L440.651,404.495L440.725,404.537L440.799,404.58L440.873,404.623L440.947,404.666L441.02,404.71L441.093,404.754L441.166,404.798L441.239,404.843L441.311,404.887L441.383,404.933L441.455,404.978L441.527,405.024L441.599,405.07L441.67,405.116L441.741,405.162L441.812,405.209L441.882,405.256L441.953,405.304L442.023,405.351L442.093,405.399L442.162,405.447L442.232,405.496L442.301,405.545L442.37,405.594L442.438,405.643L442.507,405.693L442.575,405.743L442.643,405.793L442.711,405.843L442.778,405.894L442.846,405.945L442.913,405.996L442.98,406.048L443.046,406.1L443.113,406.152L443.179,406.204L443.245,406.257L443.31,406.31L443.376,406.363L443.441,406.416L443.506,406.47L443.571,406.524L443.635,406.578L443.699,406.633L443.764,406.688L443.827,406.743L443.891,406.798L443.954,406.854L444.017,406.909L444.08,406.965L444.143,407.022L444.205,407.078L444.267,407.135L444.329,407.192L444.391,407.25L444.453,407.307L444.514,407.365L444.575,407.424L444.636,407.482L444.696,407.541L444.756,407.6L444.816,407.659L444.876,407.718L444.936,407.778L444.995,407.838L445.054,407.898L445.113,407.958L445.172,408.019L445.23,408.08L445.289,408.141L445.347,408.203L445.404,408.264L445.462,408.326L445.519,408.388L445.576,408.451L445.633,408.513L445.69,408.576L445.746,408.639L445.802,408.703L445.858,408.767L445.914,408.83L445.969,408.894L446.024,408.959L446.079,409.023L446.134,409.088L446.189,409.153L446.243,409.219L446.297,409.284L446.351,409.35L446.404,409.416L446.458,409.482L446.511,409.549L446.564,409.615L446.617,409.682L446.669,409.749L446.721,409.817L446.773,409.884L446.825,409.952L446.877,410.02L446.928,410.089L446.979,410.157L447.03,410.226L447.081,410.295L447.132,410.365L447.231,410.503L447.33,410.643L447.429,410.784L447.526,410.926L447.623,411.068L447.719,411.212L447.813,411.356L447.907,411.501L448,411.648L448.093,411.795L448.184,411.942L448.274,412.091L448.364,412.24L448.452,412.391L448.54,412.542L448.627,412.694L448.713,412.847L448.798,413L448.883,413.155L448.966,413.31L449.049,413.466L449.13,413.623L449.211,413.781L449.291,413.939L449.37,414.098L449.449,414.258L449.526,414.419L449.603,414.581L449.679,414.743L449.754,414.906L449.828,415.07L449.901,415.235L449.974,415.4L450.045,415.567L450.116,415.734L450.186,415.901L450.255,416.07L450.324,416.239L450.391,416.409L450.458,416.579L450.524,416.751L450.589,416.923L450.653,417.096L450.717,417.269L450.78,417.443L450.842,417.618L450.903,417.794L450.963,417.97L451.023,418.147L451.082,418.325L451.14,418.504L451.197,418.683L451.253,418.863L451.309,419.043L451.364,419.224L451.418,419.406L451.471,419.589L451.524,419.772L451.575,419.956L451.627,420.14L451.677,420.325L451.726,420.511L451.775,420.698L451.823,420.885L451.87,421.073L451.917,421.261L451.962,421.45L452.007,421.64L452.052,421.831L452.095,422.022L452.138,422.213L452.18,422.405L452.221,422.598L452.262,422.792L452.302,422.986L452.341,423.181L452.379,423.376L452.417,423.572L452.454,423.769L452.49,423.966L452.525,424.163L452.56,424.362L452.594,424.561L452.628,424.76L452.66,424.96L452.692,425.161L452.723,425.362L452.754,425.564L452.784,425.767L452.813,425.97L452.841,426.173L452.869,426.377L452.896,426.582L452.922,426.787L452.948,426.993L452.973,427.2L452.997,427.406L453.02,427.614L453.043,427.822L453.065,428.03L453.087,428.24L453.108,428.449L453.128,428.659L453.147,428.87L453.166,429.081L453.184,429.293L453.202,429.505L453.218,429.718L453.234,429.931L453.25,430.145L453.265,430.359L453.279,430.574L453.292,430.789L453.305,431.005L453.317,431.221L453.329,431.438L453.339,431.656L453.35,431.873L453.359,432.092L453.368,432.31L453.376,432.529L453.384,432.749L453.391,432.969L453.397,433.19L453.403,433.411L453.408,433.633L453.412,433.855L453.416,434.077L453.419,434.3L453.422,434.523L453.423,434.747L453.425,434.971L453.425,435.196L453.425,494.785L482.991,494.785L482.991,435.208L482.987,434.931L482.983,434.644L482.978,434.358L482.973,434.073L482.967,433.789L482.961,433.505L482.954,433.222L482.948,432.94L482.94,432.658L482.932,432.377L482.924,432.097L482.915,431.817L482.906,431.538L482.897,431.26L482.887,430.982L482.877,430.705L482.866,430.429L482.855,430.153L482.843,429.879L482.831,429.604L482.818,429.331L482.805,429.058L482.792,428.786L482.778,428.515L482.764,428.244L482.749,427.974L482.734,427.704L482.718,427.436L482.702,427.168L482.685,426.901L482.668,426.634L482.651,426.368L482.633,426.103L482.615,425.839L482.596,425.575L482.577,425.312L482.557,425.049L482.537,424.788L482.516,424.527L482.495,424.266L482.474,424.007L482.452,423.748L482.43,423.49L482.407,423.232L482.383,422.976L482.36,422.72L482.335,422.464L482.311,422.21L482.286,421.956L482.26,421.703L482.234,421.45L482.207,421.198L482.18,420.947L482.153,420.697L482.125,420.447L482.096,420.198L482.068,419.95L482.038,419.703L482.008,419.456L481.978,419.21L481.947,418.965L481.916,418.72L481.884,418.476L481.852,418.233L481.819,417.991L481.786,417.749L481.753,417.508L481.719,417.268L481.684,417.028L481.649,416.789L481.613,416.551L481.577,416.314L481.541,416.077L481.504,415.841L481.466,415.606L481.428,415.372L481.39,415.138L481.351,414.905L481.312,414.673L481.272,414.441L481.231,414.21L481.19,413.98L481.149,413.751L481.107,413.522L481.065,413.294L481.022,413.067L480.979,412.841L480.935,412.615L480.89,412.39L480.846,412.166L480.8,411.943L480.754,411.72L480.708,411.498L480.661,411.277L480.614,411.057L480.566,410.837L480.518,410.618L480.469,410.4L480.42,410.182L480.37,409.966L480.32,409.75L480.269,409.534L480.217,409.32L480.166,409.106L480.113,408.893L480.06,408.681L480.007,408.47L479.953,408.259L479.899,408.049L479.844,407.84L479.788,407.631L479.733,407.424L479.676,407.217L479.619,407.01L479.562,406.805L479.504,406.6L479.445,406.396L479.386,406.193L479.327,405.991L479.267,405.789L479.206,405.588L479.145,405.388L479.083,405.189L479.021,404.99L478.959,404.793L478.896,404.596L478.832,404.399L478.768,404.204L478.703,404.009L478.638,403.815L478.572,403.622L478.506,403.429L478.439,403.238L478.372,403.047L478.304,402.857L478.235,402.667L478.166,402.479L478.097,402.291L478.027,402.104L477.957,401.918L477.885,401.732L477.814,401.547L477.742,401.363L477.669,401.18L477.596,400.998L477.522,400.816L477.448,400.635L477.373,400.455L477.298,400.276L477.222,400.097L477.146,399.92L477.069,399.743L476.992,399.567L476.914,399.391L476.835,399.217L476.756,399.043L476.676,398.87L476.596,398.697L476.516,398.526L476.434,398.355L476.353,398.185L476.27,398.016L476.187,397.848L476.104,397.68L476.02,397.513L475.936,397.347L475.851,397.182L475.765,397.017L475.679,396.854L475.592,396.691L475.505,396.529L475.417,396.367L475.329,396.207L475.24,396.047L475.151,395.888L475.061,395.73L474.97,395.572L474.879,395.416L474.788,395.26L474.695,395.105L474.603,394.951L474.509,394.797L474.415,394.644L474.321,394.492L474.226,394.341L474.131,394.191L474.035,394.041L473.938,393.893L473.841,393.745L473.743,393.597L473.645,393.451L473.546,393.305L473.446,393.161L473.346,393.017L473.246,392.873L473.144,392.731L473.043,392.589L472.94,392.448L472.838,392.308L472.734,392.169L472.63,392.03L472.526,391.892L472.42,391.755L472.315,391.619L472.208,391.484L472.102,391.349L471.994,391.215L471.886,391.082L471.778,390.95L471.668,390.818L471.559,390.688L471.448,390.558L471.337,390.428L471.226,390.3L471.114,390.172L471.001,390.046L470.888,389.92L470.774,389.794L470.659,389.67L470.544,389.546L470.429,389.423L470.312,389.301L470.196,389.18L470.078,389.059L469.96,388.939L469.842,388.82L469.722,388.702L469.602,388.585L469.482,388.468L469.361,388.352L469.239,388.237L469.117,388.123L468.994,388.009L468.871,387.896L468.747,387.784L468.622,387.673L468.497,387.563L468.371,387.453L468.244,387.344L468.117,387.236L467.989,387.129L467.861,387.022L467.732,386.916L467.602,386.811L467.472,386.707L467.341,386.603L467.209,386.501L467.077,386.399L466.944,386.298L466.811,386.197L466.676,386.098L466.542,385.999L466.406,385.901L466.27,385.804L466.133,385.707L465.995,385.611L465.892,385.539L465.787,385.468L465.683,385.396L465.578,385.325L465.473,385.255L465.368,385.184L465.263,385.114L465.158,385.045L465.053,384.976L464.947,384.907L464.842,384.838L464.736,384.77L464.63,384.702L464.524,384.634L464.418,384.567L464.311,384.5L464.205,384.433L464.098,384.367L463.992,384.301L463.885,384.235L463.778,384.17L463.671,384.105L463.564,384.04L463.456,383.976L463.349,383.912L463.241,383.849L463.134,383.785L463.026,383.723L462.918,383.66L462.81,383.598L462.701,383.536L462.593,383.474L462.485,383.413L462.376,383.352L462.267,383.292L462.158,383.231L462.05,383.171L461.94,383.112L461.831,383.053L461.722,382.994L461.612,382.935L461.503,382.877L461.393,382.819L461.283,382.762L461.173,382.705L461.063,382.648L460.953,382.591L460.843,382.535L460.732,382.479L460.622,382.424L460.511,382.369L460.4,382.314L460.289,382.259L460.178,382.205L460.067,382.151L459.956,382.098L459.845,382.045L459.733,381.992L459.622,381.94L459.51,381.888L459.398,381.836L459.286,381.784L459.174,381.733L459.062,381.683L458.95,381.632L458.837,381.582L458.725,381.532L458.612,381.483L458.499,381.434L458.386,381.385L458.273,381.337L458.16,381.289L458.047,381.241L457.934,381.194L457.82,381.147L457.707,381.1L457.593,381.054L457.48,381.008L457.366,380.962L457.252,380.917L457.138,380.872L457.024,380.828L456.909,380.783L456.795,380.739L456.681,380.696L456.566,380.653L456.451,380.61L456.336,380.567L456.222,380.525L456.107,380.483L455.991,380.442L455.876,380.4L455.761,380.36L455.645,380.319L455.53,380.279L455.414,380.239L455.299,380.2L455.183,380.16L455.067,380.122L454.951,380.083L454.835,380.045L454.718,380.007L454.602,379.97L454.486,379.933L454.369,379.896L454.253,379.86L454.136,379.824L454.019,379.788L453.902,379.753L453.785,379.718L453.668,379.683L453.551,379.649L453.433,379.615L453.316,379.581L453.199,379.548L453.081,379.515L452.963,379.482L452.845,379.45L452.728,379.418L452.61,379.387L452.492,379.355L452.373,379.325L452.255,379.294L452.137,379.264L452.018,379.234L451.9,379.205L451.781,379.175L451.663,379.147L451.544,379.118L451.425,379.09L451.306,379.062L451.187,379.035L451.068,379.008L450.948,378.981L450.829,378.955L450.71,378.929L450.59,378.903L450.471,378.878L450.351,378.853L450.231,378.828L450.111,378.804L449.991,378.78L449.871,378.756L449.751,378.733L449.631,378.71L449.511,378.688L449.39,378.665L449.27,378.644L449.149,378.622L449.029,378.601L448.908,378.58L448.787,378.56L448.666,378.54L448.545,378.52L448.424,378.5L448.303,378.481L448.182,378.463L448.061,378.444L447.94,378.426L447.818,378.409L447.697,378.391L447.575,378.374L447.453,378.358L447.332,378.342L447.21,378.326L447.088,378.31L446.966,378.295L446.844,378.28L446.722,378.266L446.6,378.251L446.477,378.238L446.355,378.224L446.232,378.211L446.11,378.198L445.987,378.186L445.865,378.174L445.742,378.162L445.619,378.151L445.496,378.14L445.373,378.129L445.25,378.119L445.127,378.109L445.004,378.099L444.881,378.09L444.758,378.081L444.634,378.073L444.511,378.065L444.387,378.057L444.264,378.049L444.14,378.042L444.016,378.036L443.893,378.029L443.769,378.023L443.645,378.017L443.521,378.012L443.397,378.007L443.273,378.002L443.148,377.998L443.024,377.994L442.9,377.991L442.775,377.988L442.651,377.985L442.526,377.982L442.402,377.98L442.277,377.978L442.153,377.977L442.028,377.976L441.903,377.975L441.778,377.975L441.653,377.975L441.528,377.975L441.403,377.976L441.278,377.977L441.153,377.978L441.027,377.98L440.902,377.982L440.777,377.985L440.651,377.988L440.526,377.991L440.4,377.994L440.275,377.998L440.149,378.003L440.023,378.007L439.897,378.012L439.772,378.018L439.646,378.023L439.52,378.029L439.394,378.036L439.268,378.043L439.142,378.05L439.015,378.057L438.889,378.065L438.763,378.074L438.637,378.082L438.51,378.091L438.384,378.1L438.257,378.11L438.131,378.12L438.004,378.131L437.877,378.141L437.751,378.152L437.624,378.164L437.497,378.176L437.37,378.188L437.243,378.201L437.117,378.214L436.99,378.227L436.862,378.241L436.735,378.255L436.608,378.269L436.481,378.284L436.354,378.299L436.227,378.314L436.099,378.33L435.972,378.346L435.845,378.363L435.717,378.38L435.59,378.397L435.462,378.415L435.334,378.433L435.207,378.451L435.079,378.47L434.951,378.489L434.824,378.509L434.696,378.528L434.568,378.549L434.44,378.569L434.312,378.59L434.184,378.611L434.056,378.633L433.928,378.655L433.8,378.678L433.672,378.7L433.544,378.724L433.416,378.747L433.287,378.771L433.159,378.795L433.031,378.82L432.903,378.845L432.774,378.87L432.646,378.896L432.517,378.922L432.389,378.948L432.26,378.975L432.132,379.002L432.003,379.03L431.875,379.058L431.746,379.086L431.617,379.115L431.488,379.144L431.36,379.173L431.231,379.203L431.102,379.233L430.973,379.264L430.844,379.294L430.716,379.326L430.587,379.357L430.458,379.389L430.329,379.422L430.2,379.454L430.071,379.488L429.941,379.521L429.812,379.555L429.683,379.589L429.554,379.624L429.425,379.659L429.296,379.694L429.166,379.73L429.037,379.766L428.908,379.802L428.779,379.839L428.649,379.876L428.52,379.914L428.391,379.952L428.261,379.99L428.132,380.029L428.002,380.068L427.873,380.107L427.743,380.147L427.614,380.187L427.484,380.228L427.355,380.269L427.225,380.31L427.096,380.352L426.966,380.394L426.836,380.436L426.707,380.479L426.577,380.522L426.448,380.566L426.318,380.61L426.188,380.654L426.058,380.699L425.929,380.744L425.799,380.789L425.669,380.835L425.539,380.881L425.41,380.928L425.28,380.975L425.15,381.022L425.02,381.07L424.89,381.118L424.76,381.166L424.631,381.215L424.501,381.264L424.371,381.314L424.241,381.364L424.111,381.414L423.981,381.465L423.851,381.516L423.721,381.568L423.591,381.619L423.461,381.672L423.331,381.724L423.201,381.777L423.071,381.831L422.941,381.884L422.811,381.939L422.681,381.993L422.551,382.048L422.421,382.103L422.291,382.159L422.161,382.215L422.031,382.272L421.901,382.328L421.771,382.386L421.641,382.443L421.511,382.501L421.381,382.559L421.251,382.618L421.121,382.677L420.991,382.737L420.861,382.797L420.731,382.857L420.601,382.918L420.471,382.979L420.341,383.04L420.211,383.102L420.081,383.164L419.951,383.227L419.821,383.289L419.691,383.353L419.561,383.416L419.431,383.481L419.301,383.545L419.171,383.61L419.041,383.675L418.911,383.741L418.781,383.807L418.651,383.873L418.521,383.94L418.391,384.007L418.262,384.075L418.132,384.143L418.002,384.211L417.872,384.28L417.742,384.349L417.612,384.418L417.482,384.488L417.352,384.559L417.223,384.629L417.093,384.7L416.963,384.772L416.833,384.844L416.703,384.916L416.573,384.988L416.444,385.061L416.314,385.135L416.184,385.209L416.055,385.283L415.925,385.357L415.795,385.432L415.665,385.508L415.536,385.583L415.406,385.659L415.277,385.736L415.147,385.813L415.017,385.89L414.888,385.968L414.758,386.046L414.629,386.124L414.499,386.203L414.37,386.282L414.24,386.362L414.111,386.442L413.982,386.522L413.852,386.603L413.723,386.684L413.593,386.766L413.464,386.848L413.335,386.93L413.206,387.013L413.076,387.096L412.947,387.18L412.818,387.264L412.689,387.348L412.56,387.433L412.431,387.518L412.301,387.603L412.172,387.689L412.043,387.776L411.914,387.862L411.785,387.949L411.657,388.037L411.528,388.125L411.399,388.213L411.27,388.302L411.141,388.391L411.012,388.48L410.884,388.57L410.755,388.66L410.626,388.751L410.498,388.842L410.369,388.934L410.24,389.025L410.112,389.118L409.983,389.21L409.855,389.303L409.726,389.397L409.598,389.491L409.47,389.585L409.341,389.679L409.213,389.774L409.085,389.87L408.957,389.966L408.828,390.062L408.7,390.158L408.572,390.255L408.444,390.353L408.316,390.451L408.188,390.549L408.06,390.647L407.932,390.746L407.805,390.846L407.677,390.946L407.549,391.046L407.421,391.146L407.294,391.247L407.166,391.349L407.039,391.451L406.911,391.553L406.784,391.655L406.656,391.758L406.529,391.862L406.401,391.966L406.274,392.07L406.147,392.174L406.02,392.279L405.893,392.385L405.766,392.491L405.638,392.597L405.511,392.703L405.385,392.81L405.258,392.918L405.131,393.026L405.004,393.134L404.877,393.243L404.751,393.352L404.624,393.461L404.497,393.571L404.371,393.681L404.245,393.792L404.118,393.903L403.992,394.014L403.865,394.126L403.739,394.238L403.613,394.351L403.487,394.464L403.361,394.578L403.235,394.691L403.109,394.806L402.983,394.92L402.856,395.036L402.803,395.078L402.661,395.188Z" style="fill:white;"/>
            <g transform="matrix(1,0,0,1.41967,0,-159.033)">
                <path d="M345.343,376.273C347.238,376.484 348.657,377.568 348.759,378.945L348.759,461.142C348.652,462.575 347.054,463.752 344.944,463.829L313.278,463.829C311.243,463.754 309.574,462.628 309.463,461.142L309.463,378.945C309.57,377.512 311.168,376.336 313.278,376.258L344.944,376.258C345.077,376.263 345.21,376.268 345.343,376.273Z" style="fill:white;"/>
            </g>
            <g transform="matrix(0.702054,0,0,0.702054,149.267,75.0884)">
                <circle cx="255.755" cy="376.546" r="36.221" style="fill:white;stroke:white;stroke-width:0.17px;stroke-linecap:round;stroke-miterlimit:1.5;"/>
            </g>
        </g>
    </g>
</svg>
