<?xml version="1.0" encoding="UTF-8" standalone="no"?>
<!DOCTYPE svg PUBLIC "-//W3C//DTD SVG 1.1//EN" "http://www.w3.org/Graphics/SVG/1.1/DTD/svg11.dtd">
<svg width="100%" height="100%" viewBox="0 0 512 512" version="1.1" xmlns="http://www.w3.org/2000/svg" xmlns:xlink="http://www.w3.org/1999/xlink" xml:space="preserve" xmlns:serif="http://www.serif.com/" style="fill-rule:evenodd;clip-rule:evenodd;stroke-linejoin:round;stroke-miterlimit:2;">
    <rect id="Artboard1" x="0" y="0" width="512" height="512" style="fill:none;"/>
    <g id="Artboard11" serif:id="Artboard1">
        <g transform="matrix(1.2342,0,0,1.2342,-59.9558,-59.9558)">
            <path d="M408.166,161.391C420.743,161.391 432.083,168.967 436.897,180.586C446.561,203.816 451.918,229.287 451.918,256C451.918,282.713 446.561,308.184 436.861,331.399C432.053,343.003 420.728,350.57 408.166,350.57C391.067,350.599 367.24,350.606 356.396,350.608L350.609,350.609L256,350.609L256,365.209L350.609,365.209L350.609,408.166C350.609,420.743 343.033,432.083 331.414,436.897C308.184,446.561 282.713,451.918 256,451.918C229.287,451.918 203.816,446.561 180.601,436.861C168.997,432.053 161.43,420.728 161.43,408.166C161.401,391.067 161.394,367.24 161.392,356.396L161.391,350.609L161.391,289.916C161.391,273.867 174.402,260.856 190.451,260.856L326.97,260.856C335.924,260.856 344.511,257.299 350.843,250.967C357.175,244.636 360.732,236.048 360.732,227.094C360.732,198.252 360.732,161.391 360.732,161.391L408.166,161.391ZM303.304,376.245C316.591,376.245 327.379,387.032 327.379,400.319C327.379,413.606 316.591,424.394 303.304,424.394C290.017,424.394 279.23,413.606 279.23,400.319C279.23,387.032 290.017,376.245 303.304,376.245Z" style="fill:rgb(229,208,65);"/>
            <path d="M60.082,256C60.082,229.287 65.439,203.816 75.139,180.601C79.947,168.997 91.272,161.43 103.834,161.43C126.633,161.391 161.391,161.391 161.391,161.391L256,161.391L256,146.803L161.391,146.803L161.391,103.834C161.391,91.257 168.967,79.917 180.586,75.103C203.816,65.439 229.287,60.082 256,60.082C282.713,60.082 308.184,65.439 331.399,75.139C343.003,79.947 350.57,91.272 350.57,103.834C350.599,120.933 350.606,144.76 350.608,155.604L350.609,161.391L350.609,222.084C350.609,238.133 337.598,251.144 321.549,251.144L185.03,251.144C176.076,251.144 167.489,254.701 161.157,261.033C154.825,267.364 151.268,275.952 151.268,284.906C151.268,313.748 151.268,350.609 151.268,350.609L103.834,350.609C91.257,350.609 79.917,343.033 75.103,331.414C65.439,308.184 60.082,282.713 60.082,256ZM208.696,87.697C221.983,87.697 232.77,98.484 232.77,111.771C232.77,125.058 221.983,135.845 208.696,135.845C195.409,135.845 184.621,125.058 184.621,111.771C184.621,98.484 195.409,87.697 208.696,87.697Z" style="fill:rgb(71,120,217);"/>
        </g>
    </g>
</svg>
